<svg width="25" height="25" viewBox="0 0 25 25" fill="none" xmlns="http://www.w3.org/2000/svg">
<path d="M4 5.82611H21.0435C21.5958 5.82611 22.0435 6.27383 22.0435 6.82611V21C22.0435 21.5523 21.5958 22 21.0435 22H4C3.44772 22 3 21.5523 3 21V6.82611C3 6.27383 3.44772 5.82611 4 5.82611Z" stroke="black" stroke-width="2"/>
<path d="M9.65216 2H15.3913C16.4238 2 17.2609 2.83703 17.2609 3.86957C17.2609 4.9021 16.4238 5.73913 15.3913 5.73913H9.65216C8.61962 5.73913 7.78259 4.9021 7.78259 3.86957C7.78259 2.83703 8.61963 2 9.65216 2Z" stroke="black" stroke-width="2"/>
</svg>
